<?xml version="1.0" encoding="UTF-8"?>
<svg version="1.1" xmlns="http://www.w3.org/2000/svg" width="512" height="512">
<path d="M0 0 C1.78897453 -0.00744736 1.78897453 -0.00744736 3.61408997 -0.01504517 C6.87470567 -0.02711716 10.13528559 -0.03460251 13.39591956 -0.03905582 C15.43798388 -0.04199675 17.48004272 -0.04610347 19.52210426 -0.05056 C25.9256003 -0.06422013 32.32908365 -0.0738936 38.73259324 -0.07776189 C46.09767994 -0.08223682 53.46258052 -0.09976458 60.82761067 -0.12876248 C66.5382635 -0.15045779 72.24886427 -0.16047036 77.95955783 -0.16180301 C81.36199899 -0.16284559 84.76426485 -0.16863545 88.16666222 -0.18662262 C91.96932271 -0.20376155 95.77153484 -0.20178331 99.57421875 -0.1953125 C101.23999466 -0.20913467 101.23999466 -0.20913467 102.93942261 -0.22323608 C115.28329476 -0.15775261 125.23012661 2.66019138 134.3059082 11.23535156 C141.16117976 18.4827143 145.21174425 26.414293 145.25776672 36.46546936 C145.26849968 38.07801102 145.26849968 38.07801102 145.27944946 39.72312927 C145.28213837 40.89771194 145.28482727 42.07229462 145.28759766 43.2824707 C145.29416885 44.52359619 145.30074005 45.76472168 145.30751038 47.04345703 C145.32724378 51.15690351 145.33891211 55.27031098 145.34887695 59.38378906 C145.35292671 60.80379187 145.3570437 62.2237945 145.36122704 63.64379692 C145.38027337 70.31960379 145.39450291 76.99539967 145.402839 83.67122847 C145.41259544 91.35616756 145.43887527 99.04081739 145.4793399 106.72565466 C145.50959846 112.67830196 145.52431725 118.63086684 145.52762002 124.58358949 C145.52996034 128.13255348 145.53878599 131.68120829 145.56408119 135.23008919 C145.59190704 139.19816228 145.58750109 143.16586176 145.58056641 147.1340332 C145.59978149 148.87465279 145.59978149 148.87465279 145.61938477 150.6504364 C145.54289223 162.71029715 141.93400598 172.24139203 133.45043945 180.84472656 C123.1986365 190.20912972 111.48366555 191.46668369 98.05834961 191.43579102 C96.89598282 191.44090195 95.73361603 191.44601288 94.536026 191.45127869 C90.71968336 191.46510105 86.9035228 191.46422345 83.0871582 191.46191406 C81.09302752 191.46482024 79.09889677 191.46773196 77.1047672 191.47132081 C70.84269431 191.48237572 64.58068142 191.48287619 58.31860352 191.47680664 C51.88950277 191.47077038 45.46062108 191.48307814 39.03155768 191.50437671 C33.48300504 191.52207256 27.93452163 191.52798156 22.38594186 191.52473897 C19.08469523 191.52293857 15.78363811 191.52677914 12.48241043 191.53945351 C8.79531517 191.55187338 5.10871892 191.54499256 1.42163086 191.53344727 C0.34904526 191.541091 -0.72354034 191.54873474 -1.82862854 191.55661011 C-14.44934122 191.46983364 -24.64541801 188.77520725 -34.0456543 180.19238281 C-43.06890177 170.89978467 -45.64757263 160.60342439 -45.52050781 147.94799805 C-45.53124077 146.05529678 -45.53124077 146.05529678 -45.54219055 144.12435913 C-45.56052354 140.70061186 -45.54788374 137.27765488 -45.52810025 133.85394168 C-45.51156419 130.24897967 -45.52054705 126.64406191 -45.52561951 123.03907776 C-45.53012337 116.98954831 -45.51437604 110.94032978 -45.48632812 104.89086914 C-45.45426922 97.92311957 -45.45430306 90.9559299 -45.47154289 83.98814052 C-45.48747241 77.24981085 -45.48063431 70.51168405 -45.46360588 63.77336311 C-45.45678068 60.92153499 -45.45772062 58.06987173 -45.46515083 55.21804619 C-45.47431966 51.22667863 -45.45014194 47.23615788 -45.42285156 43.24487305 C-45.42937744 42.07832687 -45.43590332 40.9117807 -45.44262695 39.70988464 C-45.30906658 28.16354557 -42.13368399 18.47020055 -33.8894043 10.16113281 C-23.32961624 1.61985291 -13.27005259 0.01323714 0 0 Z M-16.2019043 31.72363281 C-16.69303711 32.32304687 -17.18416992 32.92246094 -17.69018555 33.54003906 C-19.80527811 36.39920327 -20.01868138 38.21521502 -20.03657532 41.72038269 C-20.04373062 42.68064362 -20.05088593 43.64090454 -20.05825806 44.63026428 C-20.06094696 45.68741135 -20.06363586 46.74455841 -20.06640625 47.83374023 C-20.07297745 48.94444885 -20.07954865 50.05515747 -20.08631897 51.19952393 C-20.1060876 54.88855043 -20.11772316 58.57753615 -20.12768555 62.26660156 C-20.13176107 63.52477503 -20.1358366 64.78294849 -20.14003563 66.07924843 C-20.15875808 72.05239471 -20.1733194 78.02552799 -20.1816476 83.99869651 C-20.19141047 90.88680343 -20.21770305 97.77458817 -20.25814849 104.66258162 C-20.29199878 110.63302722 -20.303797 116.6033943 -20.30785179 122.57393837 C-20.31272522 125.11085505 -20.32436059 127.64776811 -20.34288979 130.18462181 C-20.36722258 133.73719294 -20.36632621 137.28892388 -20.359375 140.84155273 C-20.37859009 142.4120916 -20.37859009 142.4120916 -20.39819336 144.01435852 C-20.35345137 150.29257715 -19.5922534 154.03836718 -15.8894043 159.16113281 C-9.46507833 165.25600617 -3.59625569 165.45634267 4.86425781 165.43579102 C5.94775009 165.44090195 7.03124237 165.44601288 8.14756775 165.45127869 C11.7277479 165.46517425 15.30773555 165.46421797 18.88793945 165.46191406 C21.37748791 165.46580087 23.86703571 165.47013551 26.35658264 165.47489929 C31.57433217 165.48236134 36.79201404 165.4820702 42.00976562 165.47680664 C47.36693524 165.47143439 52.7239159 165.47848075 58.08105469 165.49731445 C64.55129017 165.51977019 71.0213678 165.52756751 77.49164009 165.52364159 C79.95679841 165.52415503 82.42196045 165.52939716 84.88709831 165.53945351 C88.334095 165.55178985 91.78055103 165.54504262 95.22753906 165.53344727 C96.2453949 165.541091 97.26325073 165.54873474 98.31195068 165.55661011 C104.58458045 165.50997258 109.21161611 164.8899417 113.97387695 160.40722656 C114.45211914 159.81039062 114.93036133 159.21355469 115.4230957 158.59863281 C115.91422852 157.99921875 116.40536133 157.39980469 116.91137695 156.78222656 C119.02646951 153.92306235 119.23987279 152.10705061 119.25776672 148.60188293 C119.26492203 147.64162201 119.27207733 146.68136108 119.27944946 145.69200134 C119.28213837 144.63485428 119.28482727 143.57770721 119.28759766 142.48852539 C119.29745445 140.82246246 119.29745445 140.82246246 119.30751038 139.1227417 C119.32727901 135.43371519 119.33891457 131.74472948 119.34887695 128.05566406 C119.35295248 126.7974906 119.35702801 125.53931713 119.36122704 124.2430172 C119.37994949 118.26987091 119.39451081 112.29673763 119.402839 106.32356912 C119.41260188 99.4354622 119.43889445 92.54767745 119.4793399 85.659684 C119.51319019 79.68923841 119.52498841 73.71887132 119.5290432 67.74832726 C119.53391663 65.21141057 119.545552 62.67449751 119.56408119 60.13764381 C119.58841398 56.58507269 119.58751762 53.03334175 119.58056641 49.48071289 C119.59337646 48.43368698 119.60618652 47.38666107 119.61938477 46.3079071 C119.57464278 40.02968848 118.81344481 36.28389844 115.1105957 31.16113281 C108.68626974 25.06625946 102.8174471 24.86592296 94.35693359 24.88647461 C93.27344131 24.88136368 92.18994904 24.87625275 91.07362366 24.87098694 C87.49344351 24.85709138 83.91345586 24.85804766 80.33325195 24.86035156 C77.8437035 24.85646475 75.3541557 24.85213011 72.86460876 24.84736633 C67.64685923 24.83990429 62.42917737 24.84019542 57.21142578 24.84545898 C51.85425616 24.85083123 46.4972755 24.84378488 41.14013672 24.82495117 C34.66990124 24.80249543 28.19982361 24.79469811 21.72955132 24.79862404 C19.26439299 24.79811059 16.79923096 24.79286846 14.33409309 24.78281212 C10.88709641 24.77047577 7.44064038 24.777223 3.99365234 24.78881836 C2.46686859 24.77735275 2.46686859 24.77735275 0.90924072 24.76565552 C-6.23988473 24.81880986 -11.52328079 25.88481157 -16.2019043 31.72363281 Z " fill="#000000" transform="translate(318.889404296875,274.8388671875)"/>
<path d="M0 0 C1.78941261 -0.0076664 1.78941261 -0.0076664 3.61497498 -0.01548767 C6.86725031 -0.02695821 10.11936654 -0.02946479 13.37165666 -0.02692437 C16.09743567 -0.02584915 18.8231916 -0.03075221 21.54896563 -0.03552979 C27.98643762 -0.04659921 34.42385124 -0.0470773 40.86132812 -0.04101562 C47.47672089 -0.03498162 54.09190065 -0.04727804 60.70725709 -0.06858569 C66.40946764 -0.08626897 72.1116108 -0.09219239 77.81384772 -0.08894795 C81.20953813 -0.08714515 84.60507667 -0.08966962 88.00074196 -0.10366249 C91.79362796 -0.11606352 95.58602745 -0.10921237 99.37890625 -0.09765625 C101.03996902 -0.10912186 101.03996902 -0.10912186 102.73458862 -0.12081909 C116.01672823 -0.03182899 125.76899869 3.59682247 135.63354492 12.4621582 C141.79491513 18.88144624 144.99045237 27.78554417 145.03071594 36.57899475 C145.0414489 38.19153641 145.0414489 38.19153641 145.05239868 39.83665466 C145.05508759 41.01123734 145.05777649 42.18582001 145.06054688 43.39599609 C145.06711807 44.63712158 145.07368927 45.87824707 145.08045959 47.15698242 C145.100193 51.2704289 145.11186133 55.38383637 145.12182617 59.49731445 C145.12587593 60.91731727 145.12999292 62.33731989 145.13417625 63.75732231 C145.15322258 70.43312918 145.16745213 77.10892506 145.17578822 83.78475386 C145.18554466 91.46969295 145.21182449 99.15434278 145.25228912 106.83918005 C145.28254768 112.79182735 145.29726647 118.74439223 145.30056924 124.69711488 C145.30290956 128.24607887 145.31173521 131.79473368 145.33703041 135.34361458 C145.36485626 139.31168767 145.36045031 143.27938715 145.35351562 147.24755859 C145.37273071 148.98817818 145.37273071 148.98817818 145.39233398 150.76396179 C145.32319384 161.66463974 142.51124032 171.25623454 134.88354492 179.2746582 C124.02233226 189.44792457 112.69195093 191.42103 98.28540039 191.43579102 C97.12361771 191.44075592 95.96183502 191.44572083 94.7648468 191.45083618 C90.92680261 191.46542319 87.08879977 191.47225465 83.25073242 191.4777832 C81.25184503 191.48208277 79.25295763 191.48638289 77.2540704 191.4907577 C71.68350521 191.50255364 66.11294995 191.51010045 60.54237354 191.5135529 C53.36746633 191.51802557 46.1927504 191.53554243 39.0179013 191.5645535 C33.45245448 191.58626592 27.88706109 191.59626231 22.32157242 191.59759402 C19.00683674 191.59863556 15.69232062 191.60588025 12.3776207 191.62241364 C8.67095445 191.63958001 4.96474715 191.63756763 1.25805664 191.63110352 C-0.36024803 191.64492569 -0.36024803 191.64492569 -2.01124573 191.6590271 C-14.60767704 191.59064921 -25.04147443 188.97129764 -34.30786133 180.20043945 C-41.1695104 172.95969375 -45.21761279 165.01949851 -45.2636261 154.97032166 C-45.2707814 153.89529388 -45.27793671 152.82026611 -45.28530884 151.71266174 C-45.28799774 150.53807907 -45.29068665 149.3634964 -45.29345703 148.15332031 C-45.30002823 146.91219482 -45.30659943 145.67106934 -45.31336975 144.39233398 C-45.33310315 140.27888751 -45.34477148 136.16548003 -45.35473633 132.05200195 C-45.35878609 130.63199914 -45.36290307 129.21199652 -45.36708641 127.79199409 C-45.38613274 121.11618723 -45.40036228 114.44039135 -45.40869838 107.76456255 C-45.41845482 100.07962346 -45.44473464 92.39497362 -45.48519927 84.71013635 C-45.51545784 78.75748905 -45.53017662 72.80492418 -45.53347939 66.85220152 C-45.53581972 63.30323754 -45.54464537 59.75458272 -45.56994057 56.20570183 C-45.59776641 52.23762873 -45.59336047 48.26992926 -45.58642578 44.30175781 C-45.60564087 42.56113823 -45.60564087 42.56113823 -45.62524414 40.78535461 C-45.55013925 28.94426996 -42.01202416 19.48406866 -33.99145508 10.7121582 C-24.47143259 1.49791802 -12.65617422 -0.02815994 0 0 Z M-16.55395508 32.7746582 C-17.02704102 33.3418457 -17.50012695 33.9090332 -17.98754883 34.4934082 C-20.07406429 37.78562638 -20.24329437 41.0884239 -20.2636261 44.91583252 C-20.2707814 45.843741 -20.27793671 46.77164948 -20.28530884 47.72767639 C-20.28799774 48.73865891 -20.29068665 49.74964142 -20.29345703 50.79125977 C-20.30002823 51.86163986 -20.30659943 52.93201996 -20.31336975 54.03483582 C-20.33308597 57.578319 -20.34476134 61.12175984 -20.35473633 64.6652832 C-20.35881186 65.87624413 -20.36288738 67.08720505 -20.36708641 68.33486176 C-20.38793943 74.74366586 -20.40224482 81.15244861 -20.41162109 87.5612793 C-20.42268721 94.17668697 -20.45709217 100.79175846 -20.49679279 107.40704727 C-20.52294956 112.49776837 -20.5313121 117.58840921 -20.53490257 122.67919159 C-20.53977047 125.11759462 -20.55139014 127.55599403 -20.56994057 129.99433136 C-20.59431221 133.40998426 -20.59337014 136.82476511 -20.58642578 140.24047852 C-20.59923584 141.24336411 -20.6120459 142.24624969 -20.62524414 143.27952576 C-20.57364526 150.25854537 -19.33436095 156.01523096 -14.30004883 161.11450195 C-13.72383789 161.47672852 -13.14762695 161.83895508 -12.55395508 162.2121582 C-11.97516602 162.59243164 -11.39637695 162.97270508 -10.80004883 163.36450195 C-7.65961816 165.06222897 -5.05408733 165.40344483 -1.55757141 165.42182922 C-0.62262344 165.42898453 0.31232452 165.43613983 1.27560425 165.44351196 C2.81149704 165.44754532 2.81149704 165.44754532 4.37841797 165.45166016 C5.99839943 165.46151695 5.99839943 165.46151695 7.65110779 165.47157288 C11.23249377 165.49131605 14.81383777 165.50297128 18.39526367 165.51293945 C19.61817423 165.51701498 20.84108479 165.52109051 22.10105324 165.52528954 C28.57469133 165.54615539 35.0483082 165.56045447 41.52197266 165.56982422 C46.87917476 165.57788202 52.23615249 165.59899902 57.59326172 165.63134766 C64.06119955 165.6697815 70.52890987 165.68858895 76.99695778 165.6931057 C79.46048036 165.69797442 81.92399932 165.70959643 84.38745689 165.72814369 C87.83913872 165.75251418 91.28995753 165.75157329 94.74169922 165.74462891 C95.75550659 165.75743896 96.76931396 165.77024902 97.81384277 165.78344727 C104.82501445 165.73214918 110.5988557 164.51750425 115.72338867 159.45825195 C116.08561523 158.88204102 116.4478418 158.30583008 116.82104492 157.7121582 C117.20131836 157.13336914 117.5815918 156.55458008 117.97338867 155.95825195 C119.66379526 152.83136251 120.01224272 150.23527113 120.03071594 146.7537384 C120.03787125 145.82720459 120.04502655 144.90067078 120.05239868 143.94606018 C120.05508759 142.93148239 120.05777649 141.9169046 120.06054688 140.87158203 C120.07040367 139.26623093 120.07040367 139.26623093 120.08045959 137.62844849 C120.10020218 134.07952812 120.11185789 130.5306501 120.12182617 126.98168945 C120.1259017 125.76981146 120.12997723 124.55793346 120.13417625 123.30933189 C120.1550419 116.89404851 120.16934104 110.47878655 120.17871094 104.06347656 C120.18977139 97.44019309 120.22416619 90.81724594 120.26388264 84.19408131 C120.29004145 79.09906901 120.2984022 74.00413689 120.30199242 68.90906334 C120.30686087 66.46786924 120.31848213 64.02667879 120.33703041 61.58555031 C120.36140328 58.1649991 120.36045959 54.74531867 120.35351562 51.32470703 C120.36632568 50.3202504 120.37913574 49.31579376 120.39233398 48.28089905 C120.34211731 41.47837828 119.2181781 35.87089607 114.47156239 30.75190449 C108.13569306 25.13567527 102.41790157 24.97679961 94.34521484 24.98413086 C92.75405602 24.97405502 92.75405602 24.97405502 91.13075256 24.96377563 C87.62512523 24.94478301 84.11968925 24.9408707 80.61401367 24.9387207 C78.1740969 24.93229343 75.7341809 24.92556513 73.29426575 24.91854858 C68.17906915 24.90657248 63.0639401 24.90286809 57.94873047 24.90405273 C51.40170535 24.90425588 44.85511449 24.87695865 38.30819225 24.84250832 C33.26807169 24.82024463 28.2280557 24.81621505 23.18789101 24.81727219 C20.77461565 24.81491525 18.36133745 24.80608657 15.94811058 24.79060745 C12.56845279 24.7709601 9.18973224 24.77678156 5.81005859 24.78881836 C4.81809479 24.77757935 3.82613098 24.76634033 2.80410767 24.75476074 C-4.84423607 24.82380176 -11.57520119 26.56884599 -16.55395508 32.7746582 Z " fill="#000000" transform="translate(89.116455078125,274.725341796875)"/>
<path d="M0 0 C1.24214767 -0.00700928 2.48429535 -0.01401855 3.76408386 -0.02124023 C7.13838106 -0.03572728 10.51168404 -0.03247611 13.88592339 -0.01972389 C17.43751108 -0.00950949 20.98905984 -0.01901276 24.54064941 -0.02526855 C30.50194819 -0.03252065 36.46304794 -0.02302177 42.42431641 -0.00390625 C49.29035535 0.01785798 56.15591898 0.01080486 63.02194643 -0.01121187 C68.94504977 -0.02943587 74.86801105 -0.03189023 80.7911334 -0.0214572 C84.31646723 -0.01526046 87.84157856 -0.01427995 91.36689758 -0.02760315 C95.30077203 -0.04143522 99.2341254 -0.02219817 103.16796875 0 C104.31738449 -0.00809692 105.46680023 -0.01619385 106.65104675 -0.02453613 C118.80616195 0.1018651 127.8593184 3.85787418 136.73242188 12.03710938 C144.97421455 20.63451239 146.82938036 31.34778194 146.71508789 42.82250977 C146.72582085 44.72984138 146.72582085 44.72984138 146.73677063 46.67570496 C146.7551057 50.12630868 146.74246242 53.5761284 146.72268033 57.02669835 C146.70614602 60.65968754 146.7151269 64.29263277 146.72019958 67.92564392 C146.72470364 74.02225084 146.70895489 80.11854925 146.6809082 86.21508789 C146.64884933 93.23736769 146.64888304 100.25909194 146.66612297 107.28141123 C146.68205171 114.07206609 146.67521487 120.86251963 146.65818596 127.65316582 C146.65136021 130.52732219 146.65230128 133.40131501 146.65973091 136.27546883 C146.66889872 140.29796707 146.64472362 144.31962487 146.61743164 148.34204102 C146.62722046 150.10588638 146.62722046 150.10588638 146.63720703 151.90536499 C146.50336836 163.5642651 143.52220531 171.97299426 135.37695312 180.35742188 C125.96091735 189.22806546 116.9913095 190.9705802 104.21142578 190.92163086 C102.31938164 190.93192574 102.31938164 190.93192574 100.38911438 190.94242859 C96.95299311 190.96026204 93.51712857 190.95921014 90.08097506 190.9534862 C87.20104647 190.95037955 84.32116616 190.95650323 81.44124448 190.96252495 C74.64080123 190.97653681 67.84048369 190.97503729 61.04003906 190.96362305 C54.05022713 190.9521494 47.06079923 190.96621217 40.07103789 190.99301952 C34.04607863 191.01525203 28.02123925 191.02179686 21.99624193 191.01594311 C18.4082655 191.01258976 14.82053504 191.01487921 11.23259354 191.03219414 C7.22659648 191.05068542 3.22133531 191.03639908 -0.78466797 191.01928711 C-2.54155693 191.03378906 -2.54155693 191.03378906 -4.3339386 191.04858398 C-15.90033468 190.94558805 -25.59294145 187.77575503 -33.91601562 179.51757812 C-40.23482377 171.70548491 -44.01551338 163.34598487 -44.06318665 153.22033691 C-44.07034195 152.17206726 -44.07749725 151.12379761 -44.08486938 150.04376221 C-44.08755829 148.90396912 -44.09024719 147.76417603 -44.09301758 146.58984375 C-44.09958878 145.38104553 -44.10615997 144.17224731 -44.1129303 142.92681885 C-44.13264153 138.92581938 -44.14433005 134.92485998 -44.15429688 130.92382812 C-44.15834786 129.54070517 -44.16246489 128.1575824 -44.16664696 126.77445984 C-44.18568779 120.27057975 -44.19991788 113.7667109 -44.20825893 107.26280832 C-44.21801002 99.78504738 -44.24427808 92.30758412 -44.28475982 84.82992792 C-44.31505826 79.03179266 -44.32974094 73.23374203 -44.33303994 67.43552923 C-44.33537594 63.98152771 -44.34414385 60.52784455 -44.36950111 57.07392883 C-44.39741513 53.2093487 -44.39290903 49.34515029 -44.38598633 45.48046875 C-44.39879639 44.35686951 -44.41160645 43.23327026 -44.42480469 42.07562256 C-44.35447762 31.23026119 -42.11478946 20.82403887 -34.88867188 12.44726562 C-25.05939312 2.83208997 -13.41395778 -0.09449305 0 0 Z M-14.79101562 32.39257812 C-19.11524373 38.7517371 -19.20956678 44.54478045 -19.19067383 51.98583984 C-19.19578476 53.02725128 -19.20089569 54.06866272 -19.2061615 55.14163208 C-19.2200371 58.57690207 -19.21910215 62.01197097 -19.21679688 65.44726562 C-19.22068504 67.84091262 -19.22501996 70.23455893 -19.2297821 72.62820435 C-19.23724005 77.64327227 -19.23695618 82.65826979 -19.23168945 87.67333984 C-19.22589684 94.09135401 -19.24282316 100.50907939 -19.26603413 106.92704582 C-19.28078589 111.8702258 -19.28164116 116.81333648 -19.2785244 121.75653458 C-19.27903693 124.12235206 -19.28426179 126.48817349 -19.29433632 128.85396957 C-19.30671039 132.16634481 -19.29990263 135.47816066 -19.28833008 138.79052734 C-19.29597382 139.76221863 -19.30361755 140.73390991 -19.31149292 141.73504639 C-19.26097724 148.29628212 -18.59200369 154.30142542 -14.23242188 159.54101562 C-13.36423828 160.21003906 -13.36423828 160.21003906 -12.47851562 160.89257812 C-11.90230469 161.3540625 -11.32609375 161.81554687 -10.73242188 162.29101562 C-7.17911082 164.69045578 -4.55890816 165.76716031 -0.23687744 165.78500366 C0.69944519 165.79353363 1.63576782 165.8020636 2.60046387 165.81085205 C4.13096375 165.80949249 4.13096375 165.80949249 5.69238281 165.80810547 C6.77251648 165.81482269 7.85265015 165.82153992 8.96551514 165.82846069 C12.54150985 165.84748059 16.11731721 165.85136717 19.69335938 165.85351562 C22.17954587 165.85994161 24.66573161 165.86666982 27.1519165 165.87368774 C32.36724602 165.8856711 37.58250925 165.88936756 42.79785156 165.88818359 C49.47383177 165.88685172 56.14932216 165.91526426 62.82522202 165.94972801 C67.96227969 165.97199153 73.09923477 165.97602126 78.23633575 165.97496414 C80.6970593 165.97732162 83.1577856 165.98615333 85.61846161 166.00162888 C89.06527825 166.02127336 92.51117566 166.01545554 95.95800781 166.00341797 C96.97024414 166.01465698 97.98248047 166.025896 99.02539062 166.03747559 C105.87999899 165.97679277 111.35469062 164.80268185 116.6064415 160.17645836 C121.70474466 154.6302072 122.33488222 148.2094386 122.3269043 140.96289062 C122.32975182 139.88025185 122.32975182 139.88025185 122.33265686 138.77574158 C122.33634682 136.39790816 122.32566036 134.02038437 122.31445312 131.64257812 C122.31325702 129.95564815 122.31280907 128.26871749 122.31306458 126.58178711 C122.31150114 123.03446302 122.30324093 119.48724001 122.28979492 115.93994141 C122.27311435 111.49282032 122.26909786 107.04581175 122.26955986 102.59866333 C122.26944804 92.37359522 122.21771528 82.14973237 122.10930634 71.92523193 C122.0925484 70.33185931 122.07687151 68.73847491 122.06232452 67.14508057 C122.0211734 62.72993606 121.95942439 58.31611654 121.86263466 53.90182495 C121.82357249 51.95762342 121.80236887 50.01308847 121.78178406 48.06860352 C121.56332917 39.95823331 120.70932238 34.95700136 114.64648438 29.20507812 C108.62383806 25.23894519 103.48838504 25.22072164 96.45385742 25.22705078 C95.3833313 25.22033356 94.31280518 25.21361633 93.20983887 25.20669556 C89.67174636 25.18770189 86.13384344 25.18379057 82.59570312 25.18164062 C80.13336611 25.17521344 77.67102986 25.16848513 75.20869446 25.16146851 C70.04641957 25.14949215 64.88421163 25.14578804 59.72192383 25.14697266 C53.1143662 25.14717581 46.50723883 25.11987837 39.89978313 25.08542824 C34.81333961 25.06316551 29.72699972 25.05913494 24.64051247 25.06019211 C22.20490855 25.05783504 19.76930183 25.04900559 17.33374596 25.03352737 C13.92295789 25.01388197 10.51309867 25.01970075 7.10229492 25.03173828 C6.10098038 25.02049927 5.09966583 25.00926025 4.06800842 24.99768066 C-3.48467156 25.06524639 -9.59615141 26.63540714 -14.79101562 32.39257812 Z " fill="#000000" transform="translate(88.916015625,46.482421875)"/>
<path d="M0 0 C5.6533869 3.91750441 10.62818217 8.31888697 15.49829102 13.16015625 C16.20022583 13.85055496 16.90216064 14.54095367 17.62536621 15.25227356 C19.92385497 17.51671901 22.21461077 19.78876279 24.50390625 22.0625 C25.29320967 22.84490051 26.08251308 23.62730103 26.89573479 24.43341064 C31.07215802 28.57411233 35.24248657 32.7208419 39.40795898 36.87255859 C43.68507567 41.13313977 47.98273151 45.37235193 52.28552341 49.60697937 C55.61497803 52.89142367 58.92850844 56.19159688 62.23808098 59.49606323 C63.81449874 61.06464217 65.39673228 62.62740088 66.98510933 64.18386841 C78.12882017 75.11831572 88.92074884 86.08775388 89.25 102.6875 C88.92653362 124.52148057 69.64892987 139.51008936 55.40625 153.796875 C54.46559441 154.74177166 54.46559441 154.74177166 53.50593567 155.70575714 C50.19558403 159.0309488 46.88248707 162.35337419 43.56689453 165.67333984 C40.17479151 169.07094705 36.79209223 172.4777595 33.41144562 175.88676071 C30.7774581 178.53948762 28.13667361 181.18537039 25.49406433 183.82950592 C24.24462784 185.08193711 22.99765325 186.33683003 21.75337219 187.59438324 C10.14991402 199.31288203 -1.74485948 211.1121042 -19.14453125 212.09375 C-40.54350267 211.39118459 -54.66986356 193.49730461 -68.73046875 179.5078125 C-69.41864496 178.82371181 -70.10682117 178.13961113 -70.81585121 177.43478012 C-74.451372 173.8199662 -78.0837167 170.20199431 -81.71362305 166.58154297 C-85.43700392 162.8692554 -89.17192911 159.16880892 -92.90951061 155.4708271 C-95.80832058 152.59827809 -98.69809849 149.71676728 -101.58559608 146.83285141 C-102.95798575 145.46529506 -104.33371723 144.10108297 -105.71300316 142.74048233 C-117.31786074 131.28326523 -127.73126235 120.18876309 -128.4375 103.0625 C-127.85960573 84.23277825 -114.05612818 71.45555472 -101.57421875 59.078125 C-100.06052516 57.56427612 -98.54750085 56.04975777 -97.03511047 54.53460693 C-93.87679577 51.37491439 -90.71168157 48.22225006 -87.54125977 45.07470703 C-83.49809499 41.05993641 -79.47069625 37.0297788 -75.4480772 32.99443436 C-72.32999224 29.86936199 -69.20452949 26.7517535 -66.07676125 23.63637543 C-64.58971047 22.15380854 -63.10469972 20.66919231 -61.62186241 19.18241119 C-44.55313582 2.08954385 -24.79731932 -14.4679068 0 0 Z M-39.92504883 32.4074707 C-40.55391998 33.02933258 -41.18279114 33.65119446 -41.83071899 34.29190063 C-43.88292129 36.32666287 -45.9203342 38.37550814 -47.95703125 40.42578125 C-49.39131882 41.85737026 -50.82619939 43.28836537 -52.26164246 44.71879578 C-55.25771279 47.70899025 -58.24648343 50.70624462 -61.23022461 53.70874023 C-65.04410785 57.54543183 -68.87569841 61.36385531 -72.71294117 65.17716694 C-75.67568222 68.12541626 -78.628784 71.08317305 -81.57910728 74.04384422 C-82.98790112 75.45529491 -84.39964067 76.86381208 -85.81443214 78.26925087 C-87.79346813 80.23806383 -89.75912547 82.21936127 -91.72192383 84.2043457 C-92.30120132 84.77552628 -92.88047882 85.34670685 -93.47731018 85.93519592 C-98.32908603 90.88842408 -101.55623831 95.94297502 -102.5625 102.875 C-101.70409905 115.13996166 -91.1570392 123.54307002 -83.01171875 131.58203125 C-81.6246773 132.96735865 -80.23852787 134.3535797 -78.85322571 135.74064636 C-75.95847805 138.63374736 -73.05545854 141.51818612 -70.14575195 144.39624023 C-66.43017465 148.07210597 -62.73254536 151.76541044 -59.0405302 155.46492481 C-56.18348895 158.3250458 -53.31888141 161.17748758 -50.45179176 164.02753258 C-49.08603847 165.38629244 -47.72219271 166.74697262 -46.36035728 168.10965919 C-44.45158526 170.01661906 -42.5332646 171.91343708 -40.61206055 173.80786133 C-39.7833419 174.64097588 -39.7833419 174.64097588 -38.93788147 175.49092102 C-33.5454801 180.76868135 -27.52291529 185.55657693 -19.8125 186.3125 C-11.79640441 185.65544298 -6.4737673 181.06621381 -1.00488281 175.52246094 C-0.35665054 174.88123795 0.29158173 174.24001495 0.9594574 173.57936096 C3.0820472 171.47425851 5.18980468 169.35500277 7.296875 167.234375 C8.77743178 165.75651577 10.25858165 164.2792505 11.74029541 162.80255127 C14.83650085 159.7122284 17.92539364 156.61482461 21.00927734 153.51220703 C24.9521118 149.54658457 28.91263352 145.59919249 32.87882614 141.65694809 C35.93850372 138.61176165 38.98854466 135.5570662 42.03580475 132.49945831 C43.49204643 131.04055854 44.95123706 129.58459593 46.41347504 128.13170624 C48.45966892 126.09573197 50.49250372 124.04726409 52.52246094 121.99511719 C53.12201096 121.40366409 53.72156097 120.812211 54.33927917 120.20283508 C59.06274564 115.38383563 62.43930169 110.36418987 63.5625 103.625 C61.65442065 91.32848863 52.24714218 83.52855465 43.828125 75.19921875 C42.42113245 73.79139612 41.01495721 72.38275623 39.60955811 70.9733429 C36.67208184 68.03301947 33.72608048 65.10160448 30.7734375 62.17651367 C27.00462936 58.44180088 23.25623451 54.6873589 19.51381302 50.92622662 C16.61633207 48.01813732 13.70911999 45.11993613 10.79885101 42.22464943 C9.41349681 40.84444824 8.03091964 39.46145342 6.65128326 38.07553673 C-4.55381637 25.93930295 -4.55381637 25.93930295 -19.5 20.375 C-27.86492629 21.03830958 -34.26067629 26.66251575 -39.92504883 32.4074707 Z " fill="#000000" transform="translate(389,39)"/>
<path d="M0 0 C0.66 0.33 1.32 0.66 2 1 C-1.63 4.63 -5.26 8.26 -9 12 C-9 7.8407692 -6.75316432 5.85455565 -4 3 C-1.6875 1.125 -1.6875 1.125 0 0 Z " fill="#555555" transform="translate(61,53)"/>
<path d="M0 0 C0.66 0.33 1.32 0.66 2 1 C-1.63 4.63 -5.26 8.26 -9 12 C-9 8.00102358 -7.64683965 6.93298448 -5 4 C-3.36643049 2.62631655 -1.7074998 1.28062485 0 0 Z " fill="#585858" transform="translate(290,281)"/>
</svg>
