<?xml version="1.0" encoding="UTF-8"?>
<svg version="1.1" xmlns="http://www.w3.org/2000/svg" width="139" height="185">
<path d="M0 0 C2.07009888 0.11598206 2.07009888 0.11598206 4.68017578 0.65063477 C5.67229065 0.85270538 6.66440552 1.054776 7.68658447 1.26296997 C13.8482242 2.63355373 19.98658319 4.08790836 26.1171875 5.58984375 C27.54679319 5.9385658 28.97640969 6.28724356 30.40603638 6.63587952 C33.38001985 7.3621469 36.35328814 8.0912664 39.32617188 8.82202148 C43.12699137 9.75569061 46.93036018 10.67850179 50.73443413 11.59880733 C53.67840092 12.31294336 56.62048718 13.03459702 59.56210709 13.75833321 C60.96400492 14.10193279 62.36657615 14.44279744 63.76983261 14.78080559 C65.72853072 15.25341246 67.68440466 15.7376775 69.64013672 16.22241211 C70.75057343 16.49395615 71.86101013 16.76550018 73.00509644 17.04527283 C76.15436211 18.04920816 78.37202132 18.98929737 81 21 C81.62082577 23.58122349 81.62082577 23.58122349 81.61473083 26.73817444 C81.62449448 27.93421799 81.63425812 29.13026154 81.64431763 30.36254883 C81.62948334 31.67642578 81.61464905 32.99030273 81.59936523 34.34399414 C81.60122882 35.74019303 81.60526443 37.13639048 81.61131287 38.53257751 C81.62130325 42.32608599 81.60009339 46.11884953 81.57283282 49.9122498 C81.54903679 53.87780043 81.55194805 57.8433354 81.55152893 61.8089447 C81.54689834 68.46789191 81.52323838 75.12655351 81.48706055 81.78540039 C81.44530842 89.49089844 81.42774486 97.19613927 81.4244408 104.90174395 C81.42084488 113.09651214 81.40197553 121.29118737 81.37732053 129.48591685 C81.37108384 131.85141649 81.36745262 134.21690906 81.36428642 136.58241463 C81.35839728 140.29491704 81.34211639 144.00723456 81.31768227 147.71965981 C81.30665868 149.73740787 81.30540152 151.75520181 81.30438232 153.77297974 C81.2944072 154.96620346 81.28443207 156.15942719 81.27415466 157.3888092 C81.26950416 158.43022599 81.26485365 159.47164278 81.26006222 160.54461765 C81 163 81 163 79 165 C76.62541702 165.74379656 74.2876454 166.39052483 71.87573242 166.98706055 C71.14220047 167.17427673 70.40866852 167.36149292 69.65290833 167.55438232 C67.22221905 168.17249798 64.78903894 168.78005227 62.35546875 169.38671875 C60.66628795 169.81192837 58.97718679 170.2374545 57.28816223 170.6632843 C53.74432333 171.55484559 50.1991627 172.44090911 46.65307617 173.32348633 C42.11044346 174.45480228 37.57202025 175.60209124 33.03454113 176.75387859 C29.54566218 177.63715254 26.05438469 178.51062423 22.56234169 179.38129616 C20.88818747 179.8002197 19.21486459 180.22248022 17.5424099 180.64813805 C15.20148857 181.24262879 12.85759016 181.82352953 10.51245117 182.40112305 C9.47814468 182.66829887 9.47814468 182.66829887 8.42294312 182.94087219 C4.61831712 183.86092315 1.77444472 184.11520973 -2 183 C-2.98653789 158.84993472 -3.15773447 134.72291143 -3.13037109 110.55493164 C-3.12467064 105.45729998 -3.1280583 100.35972056 -3.13382339 95.26209068 C-3.15551125 72.48036692 -2.88947001 49.76619681 -2 27 C-13.55 27 -25.1 27 -37 27 C-36.99214478 33.21734985 -36.99214478 33.21734985 -36.98413086 39.56030273 C-36.96759887 53.21884394 -36.95647952 66.87738499 -36.94818783 80.53593349 C-36.94302472 88.82124274 -36.93598173 97.10654253 -36.92456055 105.3918457 C-36.91461417 112.61069608 -36.90814668 119.82953961 -36.90591151 127.04839665 C-36.90460432 130.87308255 -36.90151797 134.69774887 -36.89426994 138.52242851 C-36.88751046 142.11825787 -36.88538289 145.71405946 -36.88689232 149.30989456 C-36.88648364 151.26706037 -36.88108807 153.22422312 -36.87557983 155.18138123 C-36.8769545 156.335495 -36.87832916 157.48960876 -36.87974548 158.67869568 C-36.87882369 159.688059 -36.8779019 160.69742231 -36.87695217 161.7373724 C-37 164 -37 164 -38 165 C-40.5 165.125 -40.5 165.125 -43 165 C-45.04371766 162.95628234 -44.41502245 158.83880451 -44.55419922 156.02416992 C-44.59630964 155.21332286 -44.63842007 154.4024758 -44.68180656 153.56705761 C-45.08418772 145.24781574 -45.14494434 136.94053904 -45.1328125 128.61328125 C-45.13387398 126.99404375 -45.13526117 125.37480643 -45.13694763 123.75556946 C-45.13971054 119.48451559 -45.13543129 115.21350004 -45.12877274 110.94245148 C-45.12497926 108.29803928 -45.1229284 105.65363066 -45.12130737 103.00921631 C-45.10576347 81.54498885 -45.01485472 60.08518855 -44.5625 38.625 C-44.5429425 37.64350983 -44.52338501 36.66201965 -44.50323486 35.65078735 C-44.44752697 32.96750481 -44.38411061 30.28456616 -44.31640625 27.6015625 C-44.2913224 26.44349846 -44.2913224 26.44349846 -44.26573181 25.26203918 C-44.11685267 20.11685267 -44.11685267 20.11685267 -43 19 C-39.97022196 18.91128727 -36.96332978 18.8848065 -33.93359375 18.90234375 C-33.02497086 18.9037587 -32.11634796 18.90517365 -31.18019104 18.90663147 C-28.26592779 18.91224807 -25.35174019 18.92480335 -22.4375 18.9375 C-20.46679798 18.94251286 -18.49609476 18.94707614 -16.52539062 18.95117188 C-11.68356441 18.96222289 -6.84179505 18.97949862 -2 19 C-2.02320313 17.79601562 -2.04640625 16.59203125 -2.0703125 15.3515625 C-2.08906863 13.77604785 -2.10726899 12.20052652 -2.125 10.625 C-2.14175781 9.8309375 -2.15851562 9.036875 -2.17578125 8.21875 C-2.19335473 6.14507985 -2.10335168 4.07116759 -2 2 C-1.34 1.34 -0.68 0.68 0 0 Z M6 9 C4.69411364 10.08122457 4.69411364 10.08122457 4.87695217 12.68429661 C4.87787396 13.89276721 4.87879576 15.10123781 4.87974548 16.34632874 C4.87889106 17.01688575 4.87803663 17.68744276 4.87715632 18.37831968 C4.87549963 20.64164398 4.88102593 22.90489534 4.88647461 25.16821289 C4.88675647 26.78410338 4.88659878 28.39999399 4.8860321 30.0158844 C4.88574407 34.4165224 4.89164171 38.81713339 4.89860606 43.21776509 C4.90483866 47.8115521 4.90544332 52.40533966 4.90663147 56.99913025 C4.90974506 65.70434771 4.91795883 74.40955268 4.92798096 83.11476463 C4.93914123 93.02269918 4.94465233 102.93063431 4.94967639 112.83857358 C4.96014142 133.2257227 4.9777414 153.61286057 5 174 C10.16835479 173.49752916 15.17062088 172.86388508 20.22241211 171.6171875 C21.35645981 171.3402002 22.49050751 171.06321289 23.65892029 170.77783203 C24.85300003 170.47989746 26.04707977 170.18196289 27.27734375 169.875 C28.52504044 169.56804199 29.77273712 169.26108398 31.0582428 168.94482422 C33.68041743 168.29940875 36.3016248 167.65025045 38.92211914 166.99804688 C42.28217639 166.16187339 45.64396343 165.33292429 49.00641537 164.50643921 C52.22242317 163.71544324 55.43737613 162.92021384 58.65234375 162.125 C59.86059311 161.82706543 61.06884247 161.52913086 62.31370544 161.22216797 C63.42568802 160.94518066 64.53767059 160.66819336 65.68334961 160.3828125 C66.66436142 160.13934082 67.64537323 159.89586914 68.65611267 159.64501953 C70.99692541 159.08231533 70.99692541 159.08231533 73 158 C73 114.44 73 70.88 73 26 C69.40365507 24.56146203 66.31327594 23.49671402 62.60229492 22.61132812 C61.5473735 22.35766479 60.49245209 22.10400146 59.40556335 21.84265137 C58.27528214 21.57488892 57.14500092 21.30712646 55.98046875 21.03125 C54.80793045 20.75027466 53.63539215 20.46929932 52.42732239 20.17980957 C48.68155306 19.2829907 44.93456953 18.39136913 41.1875 17.5 C37.45142792 16.60746579 33.71560712 15.71388569 29.97981262 14.82019043 C27.6571894 14.26497931 25.33435371 13.71065605 23.01127625 13.15734863 C21.4147094 12.77685364 21.4147094 12.77685364 19.78588867 12.38867188 C18.79164886 12.15269287 17.79740906 11.91671387 16.77304077 11.67358398 C14.26777305 11.06504327 11.77802511 10.41345325 9.28637695 9.75195312 C8.20187256 9.50380859 7.11736816 9.25566406 6 9 Z " fill="#000000" transform="translate(51,0)"/>
<path d="M0 0 C1.4540625 0.0309375 1.4540625 0.0309375 2.9375 0.0625 C4.1273306 2.4421612 4.07099966 3.97735735 4.0625 6.625 C4.06507812 7.43066406 4.06765625 8.23632812 4.0703125 9.06640625 C3.9375 11.0625 3.9375 11.0625 2.9375 12.0625 C-0.0625 12.1875 -0.0625 12.1875 -3.0625 12.0625 C-4.0625 11.0625 -4.0625 11.0625 -4.1953125 8.8125 C-4.19273438 7.905 -4.19015625 6.9975 -4.1875 6.0625 C-4.19007812 5.155 -4.19265625 4.2475 -4.1953125 3.3125 C-3.98863009 -0.18894319 -3.58596978 0.07318306 0 0 Z " fill="#0000000" transform="translate(65.0625,85.9375)"/>
</svg>
